<?xml version="1.0" encoding="UTF-8"?>
<!DOCTYPE svg PUBLIC "-//W3C//DTD SVG 1.1//EN" "http://www.w3.org/Graphics/SVG/1.1/DTD/svg11.dtd">
<svg version="1.1" xmlns="http://www.w3.org/2000/svg" xmlns:xlink="http://www.w3.org/1999/xlink" x="0" y="0" width="866" height="570" viewBox="0, 0, 866, 570">
  <defs>
    <clipPath id="Clip_1">
      <path d="M728.36,397.786 C728.36,490.138 595.8,565 432.274,565 C268.748,565 136.188,490.138 136.188,397.786 C136.188,305.438 268.748,176.634 432.274,176.634 C595.8,176.634 728.36,305.438 728.36,397.786 z"/>
    </clipPath>
  </defs>
  <g id="Layer_1">
    <path d="M91.688,336.93 C85.204,336.934 74.892,338.714 68.774,340.876 C68.774,340.876 16.654,360.832 11.284,364.466 C11.284,364.466 3.46,369.762 5.272,380.328 C7.094,390.926 17.174,398.044 27.774,396.222 C30.224,395.798 75.372,379.192 75.372,379.192 C81.478,377.004 91.786,375.212 98.27,375.204 L222.438,375.144 C228.926,375.14 222.348,336.874 215.86,336.874 L91.688,336.93" fill="#E15D29"/>
    <path d="M91.688,336.93 C85.204,336.934 74.892,338.714 68.774,340.876 C68.774,340.876 16.654,360.832 11.284,364.466 C11.284,364.466 3.46,369.762 5.272,380.328 C7.094,390.926 17.174,398.044 27.774,396.222 C30.224,395.798 75.372,379.192 75.372,379.192 C81.478,377.004 91.786,375.212 98.27,375.204 L222.438,375.144 C228.926,375.14 222.348,336.874 215.86,336.874 L91.688,336.93 z" fill-opacity="0" stroke="#1A1919" stroke-width="10" stroke-linecap="round" stroke-linejoin="round"/>
    <path d="M101.168,392.052 C94.678,392.056 84.366,393.832 78.254,395.992 C78.254,395.992 26.13,415.954 20.758,419.586 C20.758,419.586 12.934,424.884 14.75,435.438 C16.574,446.044 26.65,453.164 37.254,451.344 C39.7,450.918 84.846,434.312 84.846,434.312 C90.954,432.122 101.254,430.328 107.748,430.324 L231.916,430.262 C238.404,430.262 231.818,391.988 225.336,391.988 L101.168,392.052" fill="#E15D29"/>
    <path d="M101.168,392.052 C94.678,392.056 84.366,393.832 78.254,395.992 C78.254,395.992 26.13,415.954 20.758,419.586 C20.758,419.586 12.934,424.884 14.75,435.438 C16.574,446.044 26.65,453.164 37.254,451.344 C39.7,450.918 84.846,434.312 84.846,434.312 C90.954,432.122 101.254,430.328 107.748,430.324 L231.916,430.262 C238.404,430.262 231.818,391.988 225.336,391.988 L101.168,392.052 z" fill-opacity="0" stroke="#1A1919" stroke-width="10" stroke-linecap="round" stroke-linejoin="round"/>
    <path d="M110.642,447.168 C104.154,447.172 93.84,448.95 87.732,451.114 C87.732,451.114 35.606,471.066 30.236,474.704 C30.236,474.704 22.412,479.996 24.23,490.558 C26.052,501.164 36.126,508.282 46.732,506.466 C49.176,506.04 94.322,489.43 94.322,489.43 C100.43,487.238 110.736,485.446 117.222,485.442 L241.392,485.384 C247.88,485.384 241.302,447.11 234.814,447.11 L110.642,447.168" fill="#E15D29"/>
    <path d="M110.642,447.168 C104.154,447.172 93.84,448.95 87.732,451.114 C87.732,451.114 35.606,471.066 30.236,474.704 C30.236,474.704 22.412,479.996 24.23,490.558 C26.052,501.164 36.126,508.282 46.732,506.466 C49.176,506.04 94.322,489.43 94.322,489.43 C100.43,487.238 110.736,485.446 117.222,485.442 L241.392,485.384 C247.88,485.384 241.302,447.11 234.814,447.11 L110.642,447.168 z" fill-opacity="0" stroke="#1A1919" stroke-width="10" stroke-linecap="round" stroke-linejoin="round"/>
    <path d="M769.288,336.93 C775.774,336.934 786.084,338.714 792.202,340.876 C792.202,340.876 844.328,360.832 849.696,364.466 C849.696,364.466 857.514,369.762 855.704,380.328 C853.884,390.926 843.806,398.044 833.204,396.222 C830.752,395.798 785.604,379.192 785.604,379.192 C779.5,377.004 769.196,375.212 762.706,375.204 L638.538,375.144 C632.05,375.14 638.634,336.874 645.116,336.874 L769.288,336.93" fill="#E15D29"/>
    <path d="M769.288,336.93 C775.774,336.934 786.084,338.714 792.202,340.876 C792.202,340.876 844.328,360.832 849.696,364.466 C849.696,364.466 857.514,369.762 855.704,380.328 C853.884,390.926 843.806,398.044 833.204,396.222 C830.752,395.798 785.604,379.192 785.604,379.192 C779.5,377.004 769.196,375.212 762.706,375.204 L638.538,375.144 C632.05,375.14 638.634,336.874 645.116,336.874 L769.288,336.93 z" fill-opacity="0" stroke="#1A1919" stroke-width="10" stroke-linecap="round" stroke-linejoin="round"/>
    <path d="M759.81,392.052 C766.3,392.056 776.61,393.832 782.726,395.992 C782.726,395.992 834.844,415.954 840.218,419.586 C840.218,419.586 848.042,424.884 846.226,435.438 C844.404,446.044 834.326,453.164 823.724,451.344 C821.278,450.918 776.13,434.312 776.13,434.312 C770.022,432.122 759.722,430.328 753.23,430.324 L629.066,430.262 C622.574,430.262 629.158,391.988 635.638,391.988 L759.81,392.052" fill="#E15D29"/>
    <path d="M759.81,392.052 C766.3,392.056 776.61,393.832 782.726,395.992 C782.726,395.992 834.844,415.954 840.218,419.586 C840.218,419.586 848.042,424.884 846.226,435.438 C844.404,446.044 834.326,453.164 823.724,451.344 C821.278,450.918 776.13,434.312 776.13,434.312 C770.022,432.122 759.722,430.328 753.23,430.324 L629.066,430.262 C622.574,430.262 629.158,391.988 635.638,391.988 L759.81,392.052 z" fill-opacity="0" stroke="#1A1919" stroke-width="10" stroke-linecap="round" stroke-linejoin="round"/>
    <path d="M750.334,447.168 C756.824,447.172 767.136,448.95 773.25,451.114 C773.25,451.114 825.372,471.066 830.74,474.704 C830.74,474.704 838.568,479.996 836.75,490.558 C834.926,501.164 824.856,508.282 814.244,506.466 C811.8,506.04 766.656,489.43 766.656,489.43 C760.552,487.238 750.244,485.446 743.752,485.442 L619.584,485.384 C613.098,485.384 619.674,447.11 626.164,447.11 L750.334,447.168" fill="#E15D29"/>
    <path d="M750.334,447.168 C756.824,447.172 767.136,448.95 773.25,451.114 C773.25,451.114 825.372,471.066 830.74,474.704 C830.74,474.704 838.568,479.996 836.75,490.558 C834.926,501.164 824.856,508.282 814.244,506.466 C811.8,506.04 766.656,489.43 766.656,489.43 C760.552,487.238 750.244,485.446 743.752,485.442 L619.584,485.384 C613.098,485.384 619.674,447.11 626.164,447.11 L750.334,447.168 z" fill-opacity="0" stroke="#1A1919" stroke-width="10" stroke-linecap="round" stroke-linejoin="round"/>
    <path d="M216.478,241.972 C230.26,262.626 234.702,283.866 226.402,289.404 C218.104,294.936 200.204,282.678 186.426,262.022 C172.644,241.366 168.204,220.13 176.508,214.594 C184.802,209.058 202.706,221.316 216.478,241.972" fill="#E15D29"/>
    <path d="M216.478,241.972 C230.26,262.626 234.702,283.866 226.402,289.404 C218.104,294.936 200.204,282.678 186.426,262.022 C172.644,241.366 168.204,220.13 176.508,214.594 C184.802,209.058 202.706,221.316 216.478,241.972 z" fill-opacity="0" stroke="#1A1919" stroke-width="10" stroke-linecap="round" stroke-linejoin="round"/>
    <path d="M174.4,91.764 C145.146,100.33 112.794,77.794 102.132,41.416 C98.564,29.234 97.936,17.072 99.7,5.93 C93.958,7.418 88.278,9.392 82.708,11.892 C24.688,37.948 0.594,110.122 28.876,173.104 C57.158,236.092 127.114,266.032 185.134,239.984 C243.142,213.932 267.244,141.756 238.958,78.77 C231.994,63.264 222.5,49.776 211.286,38.62 C209.744,64.006 195.934,85.448 174.4,91.764" fill="#E15D29"/>
    <path d="M174.4,91.764 C145.146,100.33 112.794,77.794 102.132,41.416 C98.564,29.234 97.936,17.072 99.7,5.93 C93.958,7.418 88.278,9.392 82.708,11.892 C24.688,37.948 0.594,110.122 28.876,173.104 C57.158,236.092 127.114,266.032 185.134,239.984 C243.142,213.932 267.244,141.756 238.958,78.77 C231.994,63.264 222.5,49.776 211.286,38.62 C209.744,64.006 195.934,85.448 174.4,91.764 z" fill-opacity="0" stroke="#1A1919" stroke-width="10" stroke-linecap="round" stroke-linejoin="round"/>
    <path d="M661.078,241.972 C647.298,262.626 642.858,283.866 651.16,289.404 C659.458,294.936 677.358,282.678 691.134,262.022 C704.912,241.366 709.352,220.13 701.056,214.594 C692.756,209.058 674.858,221.316 661.078,241.972" fill="#E15D29"/>
    <path d="M661.078,241.972 C647.298,262.626 642.858,283.866 651.16,289.404 C659.458,294.936 677.358,282.678 691.134,262.022 C704.912,241.366 709.352,220.13 701.056,214.594 C692.756,209.058 674.858,221.316 661.078,241.972 z" fill-opacity="0" stroke="#1A1919" stroke-width="10" stroke-linecap="round" stroke-linejoin="round"/>
    <g>
      <path d="M703.166,91.764 C732.414,100.33 764.764,77.794 775.432,41.416 C779,29.234 779.628,17.072 777.86,5.93 C783.598,7.418 789.284,9.392 794.852,11.892 C852.868,37.948 876.964,110.122 848.678,173.104 C820.4,236.092 750.442,266.032 692.432,239.984 C634.418,213.932 610.322,141.756 638.6,78.77 C645.566,63.264 655.064,49.776 666.27,38.62 C667.816,64.006 681.624,85.448 703.166,91.764" fill="#E15D29"/>
      <path d="M703.166,91.764 C732.414,100.33 764.764,77.794 775.432,41.416 C779,29.234 779.628,17.072 777.86,5.93 C783.598,7.418 789.284,9.392 794.852,11.892 C852.868,37.948 876.964,110.122 848.678,173.104 C820.4,236.092 750.442,266.032 692.432,239.984 C634.418,213.932 610.322,141.756 638.6,78.77 C645.566,63.264 655.064,49.776 666.27,38.62 C667.816,64.006 681.624,85.448 703.166,91.764 z" fill-opacity="0" stroke="#1A1919" stroke-width="10" stroke-linecap="round" stroke-linejoin="round"/>
    </g>
    <path d="M526.424,116.094 L549.46,116.094 L549.46,204.92 L526.424,204.92 z" fill="#E15D29"/>
    <path d="M526.424,116.094 L549.46,116.094 L549.46,204.92 L526.424,204.92 z" fill-opacity="0" stroke="#1A1919" stroke-width="10" stroke-linecap="round" stroke-linejoin="round"/>
    <path d="M590.19,102.934 C590.19,133.82 565.148,158.862 534.262,158.862 C503.374,158.862 478.334,133.82 478.334,102.934 C478.334,72.046 503.374,47.006 534.262,47.006 C565.148,47.006 590.19,72.046 590.19,102.934" fill="#FFFFFE"/>
    <path d="M590.19,102.934 C590.19,133.82 565.148,158.862 534.262,158.862 C503.374,158.862 478.334,133.82 478.334,102.934 C478.334,72.046 503.374,47.006 534.262,47.006 C565.148,47.006 590.19,72.046 590.19,102.934 z" fill-opacity="0" stroke="#1A1919" stroke-width="10"/>
    <path d="M556.35,94.122 C556.35,114.712 539.656,131.404 519.068,131.404 C498.472,131.404 481.778,114.712 481.778,94.122 C481.778,73.526 498.472,56.834 519.068,56.834 C539.656,56.834 556.35,73.526 556.35,94.122" fill="#1A1919"/>
    <path d="M322.458,116.094 L345.486,116.094 L345.486,204.92 L322.458,204.92 z" fill="#E15D29"/>
    <path d="M322.458,116.094 L345.486,116.094 L345.486,204.92 L322.458,204.92 z" fill-opacity="0" stroke="#1A1919" stroke-width="10" stroke-linecap="round" stroke-linejoin="round"/>
    <path d="M386.216,102.934 C386.216,133.82 361.176,158.862 330.286,158.862 C299.402,158.862 274.358,133.82 274.358,102.934 C274.358,72.046 299.402,47.006 330.286,47.006 C361.176,47.006 386.216,72.046 386.216,102.934" fill="#FFFFFE"/>
    <path d="M386.216,102.934 C386.216,133.82 361.176,158.862 330.286,158.862 C299.402,158.862 274.358,133.82 274.358,102.934 C274.358,72.046 299.402,47.006 330.286,47.006 C361.176,47.006 386.216,72.046 386.216,102.934 z" fill-opacity="0" stroke="#1A1919" stroke-width="10"/>
    <path d="M352.384,94.122 C352.384,114.712 335.688,131.404 315.088,131.404 C294.5,131.404 277.806,114.712 277.806,94.122 C277.806,73.526 294.5,56.834 315.088,56.834 C335.688,56.834 352.384,73.526 352.384,94.122" fill="#1A1919"/>
    <path d="M730.26,397.786 C730.26,490.138 597.694,565 434.17,565 C270.65,565 138.08,490.138 138.08,397.786 C138.08,305.438 270.65,176.634 434.17,176.634 C597.694,176.634 730.26,305.438 730.26,397.786" fill="#E15D29"/>
    <g clip-path="url(#Clip_1)">
      <path d="M682.306,507.016 C682.306,592.658 570.36,662.09 432.274,662.09 C294.184,662.09 182.244,592.658 182.244,507.016 C182.244,421.368 294.184,351.938 432.274,351.938 C570.36,351.938 682.306,421.368 682.306,507.016" fill="#FEEEBB"/>
      <path d="M682.306,507.016 C682.306,592.658 570.36,662.09 432.274,662.09 C294.184,662.09 182.244,592.658 182.244,507.016 C182.244,421.368 294.184,351.938 432.274,351.938 C570.36,351.938 682.306,421.368 682.306,507.016 z" fill-opacity="0" stroke="#1A1919" stroke-width="10"/>
    </g>
    <path d="M728.36,397.786 C728.36,490.138 595.8,565 432.274,565 C268.748,565 136.188,490.138 136.188,397.786 C136.188,305.438 268.748,176.634 432.274,176.634 C595.8,176.634 728.36,305.438 728.36,397.786 z" fill-opacity="0" stroke="#1A1919" stroke-width="10"/>
    <path d="M366.06,501.634 C366.06,501.634 424.126,461.898 498.492,501.634 M314.552,484.316 C314.552,484.316 416.922,396.79 549.996,484.316 M266.826,466.5 C266.826,466.5 412.536,330.992 597.726,466.5" fill-opacity="0" stroke="#1A1919" stroke-width="10" stroke-linecap="round" stroke-linejoin="round"/>
    <path d="M319.246,260.824 C319.246,273.544 308.934,283.854 296.216,283.854 C283.5,283.854 273.184,273.544 273.184,260.824 C273.184,248.11 283.5,237.798 296.216,237.798 C308.934,237.798 319.246,248.11 319.246,260.824" fill="#F6BE25"/>
    <path d="M580.244,260.824 C580.244,273.544 569.93,283.854 557.212,283.854 C544.494,283.854 534.184,273.544 534.184,260.824 C534.184,248.11 544.494,237.798 557.212,237.798 C569.93,237.798 580.244,248.11 580.244,260.824" fill="#F6BE25"/>
    <path d="M382.926,257.556 C382.926,310.192 481.626,310.192 481.626,260.848" fill-opacity="0" stroke="#1A1919" stroke-width="10" stroke-linecap="round" stroke-linejoin="round"/>
  </g>
</svg>
