<svg xmlns="http://www.w3.org/2000/svg" xml:space="preserve" viewBox="0 0 500 500"><path fill="#fff" d="M0 0h500v500H0z" paint-order="stroke fill markers"/><path d="M120.75 134.919a21.16 21.16 0 0 0-10.351 2.684 20.7 20.7 0 0 0-7.739 7.524L66.525 202.67c-2.23 3.874-5.422 6.89-9.302 9.13a27 27 0 0 1-5.247 2.32l-34.627 11.296c-7.516 2.458-12.487 9.326-12.478 17.08l-.066 53.644c.145 10.026 8.118 18.123 17.968 18.079l38.737-.083a47 47 0 0 0-.205 4.358 46.585 46.585 0 0 0 46.586 46.586 46.585 46.585 0 0 0 46.586-46.586 47 47 0 0 0-.216-4.452l208.51.006a47 47 0 0 0-.215 4.447 46.585 46.585 0 0 0 46.585 46.585 46.585 46.585 0 0 0 46.586-46.585 47 47 0 0 0-.226-4.563l21.796-.028c10.582.003 19.055-9.355 17.77-20.134l-6.845-56.235c-.441-2.802-1.342-5.58-2.767-8.048-3.461-5.996-9.713-9.907-16.687-10.583l-108.218-9.468c-5.775-.655-11.233-3.606-14.891-8.296l-.017-.023-.006-.006-45.404-57.903c-4.14-5.134-10.446-8.31-17.013-8.28zm61.5 35.688-.061 41.41-80.451-.083 26.717-41.289zm93.823.398 32.357 41.018-87.82.149-.005-41.14z"/></svg>