<?xml version="1.0" encoding="UTF-8" standalone="no"?>
<!-- Created with Inkscape (http://www.inkscape.org/) -->

<svg
   xmlns:dc="http://purl.org/dc/elements/1.1/"
   xmlns:cc="http://creativecommons.org/ns#"
   xmlns:rdf="http://www.w3.org/1999/02/22-rdf-syntax-ns#"
   xmlns:svg="http://www.w3.org/2000/svg"
   xmlns="http://www.w3.org/2000/svg"
   xmlns:sodipodi="http://sodipodi.sourceforge.net/DTD/sodipodi-0.dtd"
   xmlns:inkscape="http://www.inkscape.org/namespaces/inkscape"
   width="744.09448819"
   height="1052.3622047"
   id="svg2"
   version="1.1"
   inkscape:version="0.48.4 r9939"
   sodipodi:docname="New document 1">
  <defs
     id="defs4" />
  <sodipodi:namedview
     id="base"
     pagecolor="#ffffff"
     bordercolor="#666666"
     borderopacity="1.0"
     inkscape:pageopacity="0.0"
     inkscape:pageshadow="2"
     inkscape:zoom="0.28644445"
     inkscape:cx="330.6379"
     inkscape:cy="533.88749"
     inkscape:document-units="px"
     inkscape:current-layer="layer1"
     showgrid="false"
     showguides="true"
     inkscape:guide-bbox="true"
     inkscape:window-width="1366"
     inkscape:window-height="721"
     inkscape:window-x="0"
     inkscape:window-y="0"
     inkscape:window-maximized="1" />
  <metadata
     id="metadata7">
    <rdf:RDF>
      <cc:Work
         rdf:about="">
        <dc:format>image/svg+xml</dc:format>
        <dc:type
           rdf:resource="http://purl.org/dc/dcmitype/StillImage" />
        <dc:title></dc:title>
      </cc:Work>
    </rdf:RDF>
  </metadata>
  <g
     inkscape:label="Layer 1"
     inkscape:groupmode="layer"
     id="layer1">
    <g
       id="g3082">
      <path
         inkscape:connector-curvature="0"
         id="rect3060"
         d="M 175.39266,47.891687 361.74073,158.00126 c 0.88863,0.52509 1.28911,1.57694 0.89796,2.35843 l -98.04754,195.89083 c -0.39115,0.78148 -1.42145,0.98792 -2.31008,0.46285 L 75.933003,246.60379 c -0.88862,-0.52509 -1.289107,-1.57693 -0.897952,-2.35842 L 173.08258,48.354549 c 0.39117,-0.781495 1.42145,-0.987933 2.31008,-0.462862 z"
         style="fill:#000000;fill-opacity:1;stroke:none" />
      <path
         sodipodi:nodetypes="sssssssss"
         inkscape:connector-curvature="0"
         id="rect3063"
         d="m 160.80193,163.51846 4.0879,-1.63217 c 1.76593,-0.70508 5.96803,3.45646 5.97419,5.13681 l 1.13741,310.44409 c 0.0137,3.75177 -14.85095,6.73883 -8.1715,4.95573 l -0.88203,0.23546 c -1.21208,0.32357 -1.87882,0.13857 -1.89076,-1.23966 l -2.73446,-315.42101 c -0.0119,-1.37822 1.34938,-2.02813 2.47925,-2.47925 z"
         style="fill:#ffffff;fill-opacity:1;stroke:none"
         transform="matrix(0.76315372,-0.64621699,0.28841608,0.95750518,0,0)" />
      <path
         sodipodi:nodetypes="sssssssss"
         inkscape:connector-curvature="0"
         id="rect3065"
         d="m 269.45697,-208.45053 4.58137,-2.72029 c 0.97622,-0.57965 1.46808,0.005 1.491,1.29497 l 5.23595,294.648827 c 0.0229,1.289873 -1.10183,2.133488 -2.31558,2.315585 l -8.56896,1.285585 c -1.21374,0.182095 -2.73936,-2.318336 -2.73936,-3.60117 l 0,-290.907927 c 0,-1.28283 1.33936,-1.73593 2.31558,-2.31558 z"
         style="fill:#ffffff;fill-opacity:1;stroke:none"
         transform="matrix(0.58770702,0.80907383,-0.95305877,0.30278538,0,0)" />
      <path
         sodipodi:nodetypes="scsccssssccss"
         inkscape:connector-curvature="0"
         id="rect3071"
         d="m 258.33087,365.39798 18.62955,-10.49179 c 3.68203,-2.07363 0.4012,-4.13421 0.36321,-3.08606 -2.82253,77.86637 11.56813,86.1477 31.00665,94.388 -6.89339,-1.85869 61.59577,1.56794 56.4606,140.6894 -2.27595,29.98047 10.2634,59.5322 38.43735,88.63147 0.65241,0.67384 0.21886,2.24048 -0.40898,2.94891 l -5.85031,6.60121 c -0.62784,0.70842 -1.12542,0.14362 -1.8576,-0.39143 -41.80861,-30.55225 -40.24405,-62.35969 -41.47753,-94.08617 5.45234,-74.81579 -11.44601,-116.4909 -57.26271,-133.59583 -37.52807,-12.72012 -30.78002,-61.00286 -38.4492,-88.6588 -0.27531,-0.99279 -0.36522,-2.5129 0.40897,-2.94891 z"
         style="fill:#000000;fill-opacity:1;stroke:none" />
      <path
         transform="matrix(0.61304288,0.49836176,-0.54357216,0.66865694,320.04362,25.317836)"
         inkscape:transform-center-y="4.2350883"
         inkscape:transform-center-x="-2.4989885"
         d="m 219.37787,392.05652 -20.12008,-12.27631 -20.12008,-12.27631 20.69164,-11.28634 20.69163,-11.28635 -0.57156,23.56266 z"
         inkscape:randomized="0"
         inkscape:rounded="0"
         inkscape:flatsided="false"
         sodipodi:arg2="2.1186472"
         sodipodi:arg1="1.0714496"
         sodipodi:r2="13.607906"
         sodipodi:r1="27.215811"
         sodipodi:cy="368.16388"
         sodipodi:cx="206.34552"
         sodipodi:sides="3"
         id="path3074"
         style="fill:#000000;fill-opacity:1;stroke:none"
         sodipodi:type="star" />
      <path
         inkscape:transform-center-y="-9.3134485"
         sodipodi:type="star"
         style="fill:#000000;fill-opacity:1;stroke:none"
         id="path3076"
         sodipodi:sides="3"
         sodipodi:cx="206.34552"
         sodipodi:cy="368.16388"
         sodipodi:r1="27.215811"
         sodipodi:r2="13.607906"
         sodipodi:arg1="1.0714496"
         sodipodi:arg2="2.1186472"
         inkscape:flatsided="false"
         inkscape:rounded="0"
         inkscape:randomized="0"
         d="m 219.37787,392.05652 -20.12008,-12.27631 -20.12008,-12.27631 20.69164,-11.28634 20.69163,-11.28635 -0.57156,23.56266 z"
         inkscape:transform-center-x="-16.802091"
         transform="matrix(-0.49484137,-0.61588803,0.67176018,-0.5397324,141.6212,688.58528)" />
      <path
         transform="matrix(0.58818398,0.52747099,-0.57532213,0.64154287,423.55683,155.97913)"
         inkscape:transform-center-x="17.074649"
         d="m 219.37787,392.05652 -20.12008,-12.27631 -20.12008,-12.27631 20.69164,-11.28634 20.69163,-11.28635 -0.57156,23.56266 z"
         inkscape:randomized="0"
         inkscape:rounded="0"
         inkscape:flatsided="false"
         sodipodi:arg2="2.1186472"
         sodipodi:arg1="1.0714496"
         sodipodi:r2="13.607906"
         sodipodi:r1="27.215811"
         sodipodi:cy="368.16388"
         sodipodi:cx="206.34552"
         sodipodi:sides="3"
         id="path3078"
         style="fill:#000000;fill-opacity:1;stroke:none"
         sodipodi:type="star"
         inkscape:transform-center-y="14.528567" />
      <path
         inkscape:transform-center-y="3.9579884"
         sodipodi:type="star"
         style="fill:#000000;fill-opacity:1;stroke:none"
         id="path3080"
         sodipodi:sides="3"
         sodipodi:cx="206.34552"
         sodipodi:cy="368.16388"
         sodipodi:r1="27.215811"
         sodipodi:r2="13.607906"
         sodipodi:arg1="1.0714496"
         sodipodi:arg2="2.1186472"
         inkscape:flatsided="false"
         inkscape:rounded="0"
         inkscape:randomized="0"
         d="m 219.37787,392.05652 -20.12008,-12.27631 -20.12008,-12.27631 20.69164,-11.28634 20.69163,-11.28635 -0.57156,23.56266 z"
         inkscape:transform-center-x="-20.044788"
         transform="matrix(-0.22221794,-0.7581591,0.82693781,-0.24237711,105.21703,738.25835)" />
    </g>
  </g>
</svg>
