<?xml version="1.0"?>
<svg xmlns:rdf="http://www.w3.org/1999/02/22-rdf-syntax-ns#" xmlns="http://www.w3.org/2000/svg" xmlns:cc="http://creativecommons.org/ns#" xmlns:xlink="http://www.w3.org/1999/xlink" xmlns:dc="http://purl.org/dc/elements/1.1/" id="svg2" viewBox="0 0 572.55 544.08" version="1.1">
  <title id="title3441">Sapin (01) - Black &amp; White</title>
  <g id="layer1" transform="translate(9.7969 -97.225)">
    <path id="path3560" stroke-linejoin="round" d="m291.78 0c-0.73-0.0183-1.46 0.035-2.25 0.125-7.68 1.2992-13.52 14.134-20.47 31.25-4.35 10.732-9.15 23.153-15.09 35.437-5.55 11.473-12.12 22.832-20.28 32.626-5.36 6.442-9.97 12.362-14.6 18.282s-9.26 11.84-14.62 18.28c-10.9 12.06-9.53 20.47-1.94 23.59 1.47 0.61 3.17 1.03 5.06 1.22-1.75 3.52-3.55 7.02-5.43 10.47-5.28 9.64-11.09 18.99-17.41 27.91-6.35 8.96-13.23 17.48-20.69 25.5 0.03 11.47 7.65 16.03 16.63 16.28 0.29 0.01 0.58 0 0.87 0-0.48 1.11-0.96 2.21-1.47 3.31-4.66 10.18-10.15 20.1-16.93 29.38-6.47 8.85-14.11 17.14-23.38 24.5-6.2 9.78 7.73 18.83 19.53 17.65-1.48 2.96-2.98 5.9-4.56 8.78-5.01 9.14-10.64 17.94-17.53 26.38-6.3 7.7-11.6 11.7-22.53 22.19-7.58 10.16-4.42 16.61 3.84 18.72 2.33 0.59 5.08 0.83 8.09 0.71-4.74 7.54-9.78 14.89-15.15 22-6.68 8.86-13.863 17.35-21.532 25.35-7.67 8-15.828 15.51-24.5 22.44-1.489 11.44 5.827 16.97 15.093 18.37 8.807 1.33 19.376-1.08 25.749-5.66 9.95-4.13 20.78-5 31.13-3.06 10.34 1.94 20.21 6.69 28.18 13.78 9.64 6 20.39 7.76 31.22 7.13 10.81-0.63 21.7-3.63 31.66-7.16 8.78-1.22 17.31-0.01 25.78 2-0.24 2.44-0.54 4.77-0.87 7.03-11.82 1.49-22.83 4.44-33.6 8.16-12.13 4.19-23.99 9.34-36.44 14.47-11.54 4.75-23.58 9.48-36.84 13.37-11.95 2.8-23.47 4.71-34.66 5.78-12.022 1.16-23.666 1.35-35.09 0.69-11.784-0.68-23.319-2.28-34.781-4.72-11.295-2.4-22.52-5.58-33.813-9.5-13.484 6.27-8.0289 10.03 1.094 12.5 7.882 2.13 18.513 3.29 22 4.25 11.578 1.57 23.373 2.88 35.25 3.6 11.803 0.71 23.672 0.85 35.44 0.15 11.84-0.7 23.59-2.27 35.06-5 11.43-2.71 22.62-6.6 33.34-11.9 11.79-5.27 24.01-10.27 36.54-14.57 12.42-4.26 25.14-7.81 37.96-10.25 2.52-0.47 5.04-0.89 7.57-1.28 0.35-1.85 0.68-3.72 0.97-5.65-0.29 1.93-0.62 3.8-0.97 5.65-0.87 4.57-1.9 9-3.13 13.63-1.56-0.07-3.12-0.13-4.72-0.13-20.09 0-37.85 5.33-48.62 13.5 11.48-5.54 27.09-8.94 44.31-8.94 18.27 0 34.74 3.85 46.37 10-7.27 1.56-13.92 2.93-21.21 3.54-5.4-0.06-11.28 0.71-16.16-2.07l-5 3.16c-1.86 6.81 32.81 0.29 36.78-0.66 7.32-1.08 14.42-3.2 21.53-5.18 11.36-3.08 21.28-5.96 36.1-4.91 10.69 0.98 13.74 2.35 26.03 5.03-4.16-2.38-8.64-4.16-13.19-5.65-6.22-2.36-12.87-3.35-19.5-3.07-0.46 0.02-0.92 0.07-1.38 0.1-0.37-3.9-0.67-7.74-0.93-11.57-0.12-1.7-0.22-3.4-0.31-5.09 0.09 1.69 0.19 3.39 0.31 5.09 8.76 3.55 17.47 6.93 26.31 9.94 11.1 3.78 22.41 7.03 34.31 9.6 11.13 2.39 22.78 4.18 35.25 5.15 12.02 1.08 23.01 1.57 33.56 1.69 11.47 0.13 22.44-0.19 33.63-0.66 10.75-0.45 21.73-1.06 33.59-1.56 8.98-0.3 17.35-0.9 24.44-1.56 16.87-1.59 26.43-3.68 19.38-3.75-10.85 0.21-21.58 0.48-32.25 0.72-10.79 0.24-21.52 0.47-32.25 0.62s-21.46 0.22-32.25 0.16c-10.67-0.07-21.41-0.27-32.25-0.66-10.99-0.61-21.47-1.84-31.6-3.65-10.65-1.91-20.91-4.45-30.9-7.57-10.14-3.16-20.02-6.93-29.78-11.22-6.42-3.08-13.04-5.51-19.79-7.4-0.16-3.32-0.29-6.64-0.4-9.94 0.92-0.37 1.84-0.72 2.78-1.06 7.77-2.85 15.8-4.62 24.53-2.97 9.71 0.37 19.25 3.81 28.81 6 9.6 2.2 19.21 3.14 28.91-1.47 8.75-2.69 16.57-8.37 24.69-12.97 8.19-4.64 16.69-8.16 26.65-6.31 7.84 0.72 15.32 3.41 22.82 5.87 7.55 2.48 15.12 4.73 23.06 4.54 10.78-2.47 13.08-8.28 11.06-14.88-1.76-5.75-6.79-12.09-12.41-17.31-9.31-8.78-17.95-18.25-25.93-28.25-4.98-6.24-9.72-12.68-14.19-19.28 6.86 1.67 13.11 1.87 17.75 0.68 8.26-2.1 11.45-8.55 3.87-18.72-8.89-7.09-16.26-14.48-22.56-22.18-6.89-8.44-12.52-17.25-17.53-26.38-3.28-5.98-6.29-12.13-9.22-18.4 2.96 0.56 6.17 0.6 9.72-0.19 15.73-5.23 1.07-11.18-14.59-25.72-13.42-14.74-18.29-24.65-21.53-33.16-1.76-4.59-3.02-8.8-4.91-13.12 0.93-0.01 1.82-0.04 2.72-0.09 12.21-0.78 20.88-6.11 13.53-15.5-9.26-8.72-16.7-16.41-22.94-23.6-8.06-9.29-14.13-17.75-19.5-26.5-4.69-7.65-8.87-15.59-13.4-24.44 1.05-0.99 2.07-2.07 3.03-3.25 4.78-8.58 5.16-21.95-2.32-28.78-8.9-9.48-17.06-19.55-24.47-30.06-7.46-10.593-14.17-21.659-20.15-33.094-5.99-11.459-11.22-23.305-15.75-35.406-4.34-9.017-8.54-20.976-19.44-21.25zm0.1 15.312c4.44-0.179 7.23 1.761 9.74 4.876 2.68 3.314 4.71 7.969 6.85 12.187l0.06 0.156c4.2 10.593 9.09 20.97 14.66 31 5.51 9.944 11.71 19.568 18.59 28.781 6.78 9.078 14.22 17.738 22.34 25.938 0.03 0.04 0.07 0.08 0.1 0.13 2.89 2.49 4.33 6.25 4.53 10.37 0.19 4.07-0.9 8.38-2.81 11.69-8.08 9.26-19.99 11.37-29.63 3.81l-0.06-0.06c-0.01-0.01-0.02 0-0.03 0-4.81-4.13-11.26-5.36-18.44-4.94-7.11 0.42-15.07 2.43-23.47 4.97-8.42 0.4-11.71-1.95-15.81-4.66-4.13-2.72-9.11-5.79-18.75-5.28-0.11 0.01-0.21 0.03-0.31 0.06-8.04 1.72-11.82 3.19-14.75 5.07-2.9 1.85-4.73 3.81-9.38 6.68-10.91 4.91-20.77 4.97-24.9 2.44-2.08-1.27-2.9-2.77-2.57-5.37 0.34-2.61 2.24-6.41 6.57-10.94l0.06-0.06c4.91-5.59 9.15-10.69 13.37-15.78 4.25-5.13 8.46-10.26 13.35-15.82 6.95-7.898 12.63-16.898 17.47-26.029 5.16-9.759 9.36-19.665 13.12-28.531 3.65-8.58 6.9-16.181 10.1-21.656 3.19-5.475 6.29-8.521 9.09-8.969 0.31-0.031 0.61-0.051 0.91-0.063zm-34.16 127.1c8.73-0.11 13 2.76 17.19 5.68 4.55 3.18 9 6.41 18.93 5.88 8.02-2.57 15.62-4.62 22.41-5.44 8.95-1.08 16.51-0.03 21.81 4.85 5.84 4.88 12.51 6.6 18.91 5.59 1.86-0.29 3.68-0.82 5.47-1.56 3.52 6.75 6.96 12.98 10.75 19.09 4.98 8.03 10.6 15.86 18.03 24.41 5.8 6.67 12.69 13.78 21.19 21.78 1.22 1.58 1.76 2.92 1.9 3.87 0.15 0.98-0.01 1.62-0.5 2.35-0.98 1.44-3.81 2.99-7.78 3.78-7.93 1.57-19.87 0.28-28.03-4l-0.03-0.03c-9.11-4.59-19.2-6.07-28.97-4.82-9.76 1.26-19.19 5.24-27.03 11.57-8.55 4.81-17.94 5.75-27.38 4.53-9.18-1.19-18.4-4.43-26.93-8.16h-0.07c-9.61-3.91-18.23-10.71-27.97-14.19-9.73-3.47-20.78-3.11-33.53 7.03-0.05 0.05-0.1 0.11-0.15 0.16-4.66 4.52-13.76 7.96-21.16 7.63-3.7-0.17-6.91-1.23-9.12-3.19-2.08-1.84-3.42-4.56-3.6-8.78 6.79-7.38 13.08-15.21 18.88-23.41 5.78-8.17 11.09-16.7 15.94-25.5 1.87-3.4 3.35-7.01 4.84-10.62 5.34-0.24 11.67-1.85 18.34-5.03 10.79-7 8.48-9.49 25.85-13.41 0.62-0.04 1.23-0.06 1.81-0.06zm-31.03 80.43c0.44-0.01 0.87-0.01 1.31 0 3.16 0.08 6.24 0.69 9.22 1.66 10.35 3.36 19.93 11.04 31.12 15.59 9.4 4.11 19.7 7.73 30.07 9 10.41 1.28 20.9 0.18 30.53-5.25 8.06-6.59 17.81-10.76 27.87-12.09 10.1-1.33 20.5 0.18 29.88 4.91 4.04 2.12 8.79 3.59 13.59 4.43 1.41 3.1 2.44 6.15 3.63 9.47 1.96 5.52 4.29 11.68 9.21 19.38 3.16 4.92 7.37 10.47 13.22 16.9 0.05 0.06 0.11 0.11 0.16 0.16 7.65 7.1 15.05 12.22 18.03 15.44 0.75 0.8 1.17 1.48 1.31 1.81 0.05 0.12 0.06 0.14 0.07 0.16-0.07 0.02-1.15 1.11-4.25 2.18-6.97 1.53-12.06-0.7-17.66-3.56-5.62-2.87-11.69-6.51-19.41-5.59-0.13 0.01-0.27 0.03-0.4 0.06-4.45 1.19-7.46 3.78-9.28 6.72-1.83 2.93-2.64 6.07-3.44 8.84-0.8 2.78-1.62 5.16-2.91 6.78-1.24 1.57-2.94 2.66-6.37 3.13-9.6-1.3-18.37-4.5-26.97-8.31-8.54-3.79-16.9-8.19-25.69-11.97-0.08-0.05-0.17-0.08-0.25-0.13-7.93-4.23-17.36-7-26.9-7.59-9.42-0.58-18.96 0.97-27.29 5.41-0.09 0.04-0.19 0.09-0.28 0.15-5.6 3.88-12.7 5.06-20.06 4.63-6.96-0.41-14.14-2.25-20.44-4.54v0.04c-11.28-5.21-24.72-7.28-37.53-4.44l-0.12 0.03c-11.14 1.98-21.1 6.48-30.07 11.44-4.77 1.55-11.33 0.32-15.53-2.38-2.11-1.36-3.57-3.02-4.15-4.56-0.57-1.47-0.5-2.86 0.59-4.69 8.68-6.98 15.89-14.78 22-23.09 6.43-8.75 11.66-18.04 16.09-27.56 0.79-1.68 1.55-3.37 2.29-5.07 6.5-1.27 12.87-4.34 16.93-8.28 8.17-6.49 15.28-9.05 21.88-9.22zm74.56 78.91c1.19 0.01 2.37 0.05 3.56 0.13 9.56 0.62 19.02 3.43 26.91 7.68 9.31 3.99 18.29 8.81 27.62 12.94 9.14 4.04 18.62 7.43 29.1 8.78 17.86-2.11 7.78-22.61 23.81-26.9 7.13-0.85 12.9 2.65 19.06 5.78 3.41 7.43 6.93 14.73 10.88 21.84 4.78 8.63 10.18 16.99 16.75 25.03 6 7.36 12.97 14.44 21.34 21.22 2.65 3.65 3.38 6.34 3.25 7.78-0.13 1.48-0.73 2.3-2.65 3.25-3.83 1.9-12.83 2.04-22.57-1.37-0.02-0.01-0.04-0.03-0.06-0.03-8.19-3.37-17.09-8.66-26.66-12.26-9.58-3.6-20.19-5.43-31-1.06-0.08 0.04-0.16 0.08-0.25 0.13-8.09 3.98-14.99 10.1-21.9 14.59-6.82 4.43-13.29 7.19-21.03 6-9.01-3.58-17.48-8.75-26.25-13.84-0.21-0.13-0.43-0.23-0.66-0.32-8.77-3.09-17.82-9.18-28.31-11.81-0.03-0.01-0.06-0.02-0.1-0.03-11.3-3.11-21.33 0.59-30.12 5.34-8.71 4.71-16.68 10.4-24.59 12.97-7.78 1.22-14.28-1.56-21.13-6-6.92-4.49-13.81-10.6-21.91-14.59-0.08-0.04-0.16-0.09-0.25-0.12-10.8-4.38-21.41-2.55-31 1.06-9.56 3.59-18.46 8.89-26.65 12.25l-0.06 0.03c-9.74 3.41-18.74 3.27-22.57 1.37-1.93-0.95-2.52-1.8-2.65-3.28-0.13-1.45 0.6-4.13 3.25-7.78 8.36-6.77 15.34-13.84 21.34-21.19 6.56-8.03 11.96-16.39 16.75-25 2.24-4.03 4.32-8.13 6.34-12.28 7.89-3.99 16.39-7.34 25.63-8.97 12.82-2.87 26.46-0.79 37.81 4.5 6.93 2.52 14.93 4.61 22.81 5 8.03 0.41 15.94-0.95 22.41-5.43 7.19-3.83 15.43-5.48 23.75-5.41zm-115.16 71.53c4.32-0.1 8.7 0.56 13.13 2.34 7.7 3.77 14.72 9.93 22.22 14.79 7.57 4.9 15.62 8.46 25.18 6.87 9.17-2.88 17.65-9.01 26.44-13.75 8.89-4.79 18.11-8.16 28.63-5.25 9.99 2.46 19.36 8.71 29.19 12.16 9.22 5.33 18.33 10.93 28.34 14.81 9.57 1.59 17.58-1.97 25.16-6.87 7.49-4.86 14.55-11.02 22.24-14.79 10.12-4.07 19.95-2.37 29.5 1.22 7.47 2.81 14.76 6.76 21.88 10.1 4.71 5.29 9.98 11.06 15.19 18.84 7.52 9.57 15.66 18.63 24.43 27.06 0.02 0.01 0.03 0.02 0.04 0.03 5.5 5.22 10.23 11.79 11.28 16.57 0.52 2.39 0.28 4.11-0.85 5.65-1.1 1.51-3.42 3.01-7.62 4.03-7.09 0.09-14.1-2.21-21.41-4.65-6.75-2.26-13.74-4.63-21.28-5.38-0.09-0.01-0.16-0.01-0.25-0.03-10.26-1.85-19.05 1.87-26.94 6.41-7.95 4.58-15.31 9.99-23.03 12.4-0.13 0.05-0.25 0.1-0.37 0.16-8.4 4.07-16.62 3.28-25.5 1.22s-18.17-5.49-28.03-5.88v0.04c-8.62-1.57-16.45 0.08-23.82 2.74-7.84 2.84-15.17 6.83-22.37 9.38-12.22 2.69-24.14-0.36-36.53-3.94-12.44-3.58-25.31-7.67-39.1-5.72-0.19 0.03-0.38 0.07-0.56 0.13-9.2 3.32-19.07 6.1-28.78 6.75-9.99 0.67-19.8-0.91-28.47-6.41l-0.03-0.03c-7.97-7.11-17.75-11.88-28.03-13.81-10.29-1.94-21.08-1.03-31.03 3.19-0.2 0.09-0.39 0.2-0.56 0.34-5.37 3.93-15.343 6.2-22.942 4.84-3.8-0.68-6.926-2.18-8.907-4.43-1.829-2.08-2.828-4.89-2.5-9.07 8.065-6.65 15.645-13.84 22.779-21.46 7.13-7.62 13.83-15.67 20.07-24.07 4.43-5.98 8.63-12.12 12.62-18.4 2.17-0.5 4.42-1.17 6.69-1.97 8.89-3.62 18.05-9.04 27.5-12.6 5.37-2.02 10.85-3.43 16.4-3.56zm71.38 115.31c8 2.07 15.96 4.66 24 6.38 8.79 1.88 17.7 2.72 26.87 0.72 5.49-1.89 10.87-4.42 16.32-6.75 0.3 9.96 0.76 20 1.72 30.34-11.43 1.42-22.31 5.61-33.54 8.03-9.23-6.85-23.42-11.65-39.75-12.9 2.14-8.29 3.66-15.99 4.38-25.82z" transform="translate(-9.7969 97.225)" stroke="#000" stroke-linecap="square" stroke-width=".033"/>
  </g>
  <metadata>
    <rdf:RDF>
      <cc:Work>
        <dc:format>image/svg+xml</dc:format>
        <dc:type rdf:resource="http://purl.org/dc/dcmitype/StillImage"/>
        <cc:license rdf:resource="http://creativecommons.org/licenses/publicdomain/"/>
        <dc:publisher>
          <cc:Agent rdf:about="http://openclipart.org/">
            <dc:title>Openclipart</dc:title>
          </cc:Agent>
        </dc:publisher>
      </cc:Work>
      <cc:License rdf:about="http://creativecommons.org/licenses/publicdomain/">
        <cc:permits rdf:resource="http://creativecommons.org/ns#Reproduction"/>
        <cc:permits rdf:resource="http://creativecommons.org/ns#Distribution"/>
        <cc:permits rdf:resource="http://creativecommons.org/ns#DerivativeWorks"/>
      </cc:License>
    </rdf:RDF>
  </metadata>
</svg>
