<?xml version="1.0" encoding="UTF-8" standalone="no"?>
<!-- Created with Inkscape (http://www.inkscape.org/) -->

<svg
   xmlns:dc="http://purl.org/dc/elements/1.1/"
   xmlns:cc="http://creativecommons.org/ns#"
   xmlns:rdf="http://www.w3.org/1999/02/22-rdf-syntax-ns#"
   xmlns:svg="http://www.w3.org/2000/svg"
   xmlns="http://www.w3.org/2000/svg"
   xmlns:sodipodi="http://sodipodi.sourceforge.net/DTD/sodipodi-0.dtd"
   xmlns:inkscape="http://www.inkscape.org/namespaces/inkscape"
   width="700.763"
   height="499.47476"
   id="svg2"
   version="1.1"
   inkscape:version="0.48.5 r10040"
   sodipodi:docname="airplane.svg">
  <defs
     id="defs4" />
  <sodipodi:namedview
     id="base"
     pagecolor="#ffffff"
     bordercolor="#666666"
     borderopacity="1.0"
     inkscape:pageopacity="0.0"
     inkscape:pageshadow="2"
     inkscape:zoom="0.24748737"
     inkscape:cx="-327.31397"
     inkscape:cy="372.68817"
     inkscape:document-units="px"
     inkscape:current-layer="layer1"
     showgrid="false"
     inkscape:window-width="1366"
     inkscape:window-height="721"
     inkscape:window-x="-4"
     inkscape:window-y="-4"
     inkscape:window-maximized="1"
     fit-margin-top="22"
     fit-margin-right="22"
     fit-margin-left="22"
     fit-margin-bottom="22" />
  <metadata
     id="metadata7">
    <rdf:RDF>
      <cc:Work
         rdf:about="">
        <dc:format>image/svg+xml</dc:format>
        <dc:type
           rdf:resource="http://purl.org/dc/dcmitype/StillImage" />
      </cc:Work>
    </rdf:RDF>
  </metadata>
  <g
     inkscape:label="Layer 1"
     inkscape:groupmode="layer"
     id="layer1"
     transform="translate(-38.627707,-142.03291)">
    <g
       id="g3830"
       transform="matrix(0.91251696,-0.40903887,0.40903887,0.91251696,-132.11843,199.84005)">
      <path
         sodipodi:nodetypes="cssc"
         inkscape:connector-curvature="0"
         id="path3791"
         d="m 570.08577,292.69805 c 0,0 -41.43305,-51.03417 -53.12977,-50.62582 -11.69671,0.40833 -31.255,1.57526 -38.44352,9.03987 -7.1885,7.46461 1.40048,65.09534 22.88061,78.86961"
         style="fill:none;stroke:#000000;stroke-width:3;stroke-linecap:butt;stroke-linejoin:miter;stroke-miterlimit:4;stroke-opacity:1;stroke-dasharray:none" />
      <path
         inkscape:connector-curvature="0"
         id="path3795"
         d="m 253.76834,337.36218 c 0,0 -39.38985,-77.14286 -24.3842,-87.14286 15.00566,-10 70.33903,-7.85714 82.53112,10 12.19211,17.85715 54.39552,75.71429 54.39552,75.71429"
         style="fill:none;stroke:#000000;stroke-width:3;stroke-linecap:butt;stroke-linejoin:miter;stroke-miterlimit:4;stroke-opacity:1;stroke-dasharray:none" />
      <path
         sodipodi:nodetypes="sssssscss"
         inkscape:connector-curvature="0"
         id="path3784"
         d="m 627.625,250.8125 c -27.49908,1.34366 -81.9237,56.53636 -113.71875,70.78571 -33.04175,14.80808 -78.50697,3.74554 -125.8125,3.74554 -143.37819,0 -268.1875,9.6777 -268.1875,65.65625 0,55.97855 176.2602,80.15625 266.78125,80.15625 71.94963,0 245.3125,-52.05576 245.3125,-79.03125 0,-4.354 -0.89948,-8.49956 -2.65625,-12.40625 25.79546,-16.20931 89.15941,-126.1622 -0.0312,-128.90625 -0.54707,-0.0168 -1.1037,-0.0285 -1.6875,0 z"
         style="opacity:0.98000004;fill:#ffffff;stroke:#000000;stroke-width:3;stroke-linecap:round;stroke-linejoin:round;stroke-miterlimit:4;stroke-opacity:1;stroke-dasharray:none;stroke-dashoffset:0" />
      <path
         sodipodi:nodetypes="sssss"
         inkscape:connector-curvature="0"
         id="path3793"
         d="m 332.99711,448.51117 c 8.28052,-21.65235 97.09302,-43.48108 118.19043,-30.85122 12.6407,7.56728 125.14282,132.13636 119.45451,142.61414 -3.79221,6.98518 -32.86579,16.29875 -56.25107,15.13456 -23.38527,-1.1642 -187.62312,-110.60889 -181.39387,-126.89748 z"
         style="fill:#ffffff;stroke:#000000;stroke-width:3;stroke-linecap:butt;stroke-linejoin:miter;stroke-miterlimit:4;stroke-opacity:1;stroke-dasharray:none" />
      <path
         inkscape:connector-curvature="0"
         id="path3797"
         d="m 264.57287,331.15769 c 19.28572,34.28571 50,86.42857 71.42857,85 21.42858,-1.42857 52.85715,-28.57143 55.71429,-46.42857 2.85714,-17.85715 -17.14286,-56.42858 -42.85714,-72.14286 -25.71429,-15.71429 -44.28572,-33.57143 -57.85715,-19.28572 -13.57142,14.28572 -25,43.57143 -26.42857,52.85715 z"
         style="fill:#ffffff;stroke:#000000;stroke-width:3;stroke-linecap:butt;stroke-linejoin:miter;stroke-miterlimit:4;stroke-opacity:1;stroke-dasharray:none" />
      <path
         sodipodi:nodetypes="csc"
         inkscape:connector-curvature="0"
         id="path3803"
         d="m 388.71935,377.89512 c 18.30089,6.23682 43.7155,0.15059 58.45788,-10.88379 14.74238,-11.03438 20.84595,-29.41569 12.71222,-39.01081"
         style="fill:none;stroke:#000000;stroke-width:3;stroke-linecap:butt;stroke-linejoin:miter;stroke-miterlimit:4;stroke-opacity:1;stroke-dasharray:none" />
      <g
         style="stroke:#000000;stroke-width:3.48295832;stroke-miterlimit:4;stroke-opacity:1;stroke-dasharray:none"
         transform="matrix(0.98557057,-0.16926502,0.12557789,0.73119582,-53.619422,15.104884)"
         id="g3823">
        <path
           style="fill:#ffffff;stroke:#000000;stroke-width:3.48295832;stroke-linecap:butt;stroke-linejoin:miter;stroke-miterlimit:4;stroke-opacity:1;stroke-dasharray:none"
           d="m 109.16561,545.19691 c -10.019851,36.05708 -45.951504,168.87289 2.53527,169.90904 48.48677,1.03616 -2.53527,-169.90904 -2.53527,-169.90904 z"
           id="path3799"
           inkscape:connector-curvature="0" />
        <path
           style="fill:#ffffff;stroke:#000000;stroke-width:3.48295832;stroke-linecap:butt;stroke-linejoin:miter;stroke-miterlimit:4;stroke-opacity:1;stroke-dasharray:none"
           d="m 109.49567,543.34935 c -10.01985,-36.05708 -45.9515,-168.87289 2.53527,-169.90904 48.48677,-1.03616 -2.53527,169.90904 -2.53527,169.90904 z"
           id="path3799-1"
           inkscape:connector-curvature="0" />
      </g>
      <path
         sodipodi:nodetypes="sssss"
         inkscape:connector-curvature="0"
         id="path3789"
         d="m 635.54274,364.68402 c -7.24721,-6.98241 -87.97673,4.71001 -84.41969,19.68418 7.86246,33.09875 70.1597,80.03869 103.64261,97.22339 33.48291,17.18471 38.1515,4.61416 53.40399,-0.84041 37.15863,-13.2886 -37.93203,-82.64012 -72.62691,-116.06716 z"
         style="fill:#ffffff;stroke:#000000;stroke-width:3;stroke-linecap:butt;stroke-linejoin:round;stroke-miterlimit:4;stroke-opacity:1;stroke-dasharray:none" />
      <path
         transform="matrix(0.78246994,0,0,1,30.434286,4)"
         d="m 130.71428,393.25504 c 0,8.58013 -7.11547,15.53571 -15.89285,15.53571 -8.77739,0 -15.892861,-6.95558 -15.892861,-15.53571 0,-8.58014 7.115471,-15.53572 15.892861,-15.53572 8.77738,0 15.89285,6.95558 15.89285,15.53572 z"
         sodipodi:ry="15.535714"
         sodipodi:rx="15.892858"
         sodipodi:cy="393.25504"
         sodipodi:cx="114.82143"
         id="path3828"
         style="opacity:0.98000004;fill:#ffffff;fill-opacity:1;stroke:#000000;stroke-width:3.39146566;stroke-linecap:round;stroke-linejoin:round;stroke-miterlimit:4;stroke-opacity:1;stroke-dasharray:none;stroke-dashoffset:0"
         sodipodi:type="arc" />
    </g>
  </g>
</svg>
