<?xml version="1.0" encoding="UTF-8" standalone="no"?>
<!-- Created with Inkscape (http://www.inkscape.org/) -->
<svg xmlns:inkscape="http://www.inkscape.org/namespaces/inkscape" xmlns:rdf="http://www.w3.org/1999/02/22-rdf-syntax-ns#" xmlns="http://www.w3.org/2000/svg" xmlns:xlink="http://www.w3.org/1999/xlink" xmlns:ns1="http://sozi.baierouge.fr" xmlns:cc="http://creativecommons.org/ns#" xmlns:sodipodi="http://sodipodi.sourceforge.net/DTD/sodipodi-0.dtd" xmlns:dc="http://purl.org/dc/elements/1.1/" id="svg2" viewBox="0 0 800 800" version="1.1" inkscape:version="0.91 r13725">
  <g id="layer1" transform="translate(0 -252.36)">
    <g id="g3058" transform="matrix(3.3765 0 0 3.1437 -805.67 -1147.6)">
      <path id="path2996" style="stroke:#000000;stroke-width:.30693px;fill:none" d="m366.15 564.91 0.1678-10.814c11.13-8.1876-10.296-7.1107-4.6941-1.0431l-0.25475 6.9938"/>
      <path id="path2998" style="stroke:#000000;stroke-width:.30693px;fill:none" d="m361.14 544.95c3.6595-2.2864 7.0719-8.7682 12.378 15.29"/>
      <path id="path3000" style="stroke:#000000;stroke-width:.30693px;fill:none" d="m370.85 548.59c14.755-12.424 15.144 1.4733 20.711 2.8315-0.4627 17.754-5.3937 13.151-9.0609 14.886-14.155 1.2786-19.222 10.773-23.3 18.769 0.9646-5.8757-2.5163-10.176 7.7665-20.711 6.818-2.4586 10.839-7.7143 14.239-13.591"/>
      <path id="path3002" style="stroke:#000000;stroke-width:.30693px;fill:none" d="m355.97 552.72c3.8847-1.9479 8.7101-3.6361 2.5888-12.297-10.649-4.4515-12.632 1.4962-14.886 7.1193-1.9858 14.689 5.3184 16.372 11.65 19.416l5.0968 6.3103"/>
      <path id="path3004" style="stroke:#000000;stroke-width:.30693px;fill:none" d="m351.43 548.19c5.5226 6.5326 13.909 12.719 11.326 20.872"/>
      <path id="path3006" style="stroke:#000000;stroke-width:.30693px;fill:none" d="m388.73 549.48c10.076-5.8177 18.822-2.247 25.484 3.8833 6.5232 10.084 4.7952 15.994 3.0742 19.902l-3.8833 1.7798 3.3978 3.5597c-6.4238 2.5817-5.8166 7.2728-8.4137 11.003-4.3871 9.1068-11.197 7.7139-18.122 5.8249"/>
      <path id="path3008" style="stroke:#000000;stroke-width:.30693px;fill:none" d="m376.03 567.6c4.615 4.7251 5.3619 10.7 3.0742 17.151"/>
      <path id="path3010" style="stroke:#000000;stroke-width:.30693px;fill:none" d="m380.07 574.8c5.4962-2.0771 5.9185-8.7059 19.254-1.3753 1.0849 9.6945-1.651 12.564-3.8833 15.533-3.2612 5.7998-7.638 10.484-19.416 7.7665-11.052-6.0735-22.819-6.4299-35.596 1.2944 6.3348-5.2148-4.383-11.509 31.713-13.591 6.6431 3.2728 11.806-2.6122 16.827-5.8249"/>
      <path id="path3012" style="stroke:#000000;stroke-width:.30693px;fill:none" d="m349.82 564.12c-9.3343 11.172-12.312 22.995-7.8474 32.441"/>
      <path id="path3014" style="stroke:#000000;stroke-width:.30693px;fill:none" d="m374.98 596.4c-10.571 7.3083-22.032 13.967-32.603 0.9708"/>
      <path id="path3016" style="stroke:#000000;stroke-width:.30693px;fill:none" d="m343.99 546.39c-6.3316-4.0694-13.627-2.5247-21.682 8.915-1.1436 3.4518-3.0116 6.9036-1.2944 10.355l3.236 1.9416c-2.1306 1.2015-3.6868 2.4668-3.8832 3.8833-4.3157 9.8436-3.4264 18.981 0 23.947 3.9478 5.0688 7.7481 8.7187 12.944 9.7081"/>
      <path id="path3018" style="stroke:#000000;stroke-width:.30693px;fill:none" d="m341.08 593.49c-6.1402 3.089-11.544 6.8094-5.8249 20.063 5.2933 8.7296 10.731 17.315 27.83 14.239 2.0622-0.4069 3.5427-1.3227 3.8832-3.236l0.64721-5.1777c1.5102 2.9475 3.0203 7.1237 4.5305 4.5305-0.6253-6.4502 4.7602-6.8896 9.0609-8.4137 10.875-2.279 17.993-7.242 16.827-18.122"/>
      <path id="path3026" style="stroke:#000000;stroke-width:.30693px;fill:none" d="m415.18 574.16c5.7457-2.1927 10.326-0.90443 15.209 1.2135-3.2144 1.1866-3.4615 2.3731-4.2069 3.5596 10.808-0.76801 13.99 4.8879 18.445 8.0901-1.2778 0.77167-3.0372 1.0618-5.1777 0.97081 7.8139 5.7019 8.9491 11.109 10.355 15.209-5.1777 2.1574-10.787 2.1574-16.827 0l2.2652 3.8832c-2.3161 0.38061-3.4129 1.9805-8.0901 0"/>
      <path id="path3028" style="stroke:#000000;stroke-width:.30693px;fill:none" d="m410.33 586.7c10.2-1.008 16.76 3.4458 23.623 7.4429-8.8452-2.953-17.69-5.5632-26.536-2.5888"/>
      <path id="path3030" style="stroke:#000000;stroke-width:.30693px;fill:none" d="m407.42 591.23c6.7808 2.6195 15.282 4.809 15.533 9.0609-6.2058-0.41933-5.6885 0.0958-6.1485 1.2944 11.128 1.3965 9.6727 6.9873 13.915 10.679-3.057-2.4464-4.4552-1.5754-5.8249-0.64721 10.876 5.9328 6.5716 11.866 6.1485 17.798-5.1733-0.27996-9.836-0.7973-13.268-7.1193-1.1853 0.75754-3.0053 0.24569-2.5888 4.2069-6.6972-2.0673-8.7935-5.975-11.326-9.7081l0.64721 5.8249c-7.1896-1.619-8.0041-7.063-11.326-11.003"/>
      <path id="path3032" style="stroke:#000000;stroke-width:.30693px;fill:none" d="m398.36 597.37c10.611 3.2592 15.35 9.8741 20.063 16.504-6.1503-6.143-13.488-8.7253-21.358-9.7081"/>
      <path id="path3034" style="stroke:#000000;stroke-width:.30693px;fill:none" d="m386.22 614.28c2.9124 3.1481 6.9575 3.2224 9.8699 1.2135"/>
      <path id="path3036" style="stroke:#000000;stroke-width:.30693px;fill:none" d="m376.68 617.44c0.90068 2.6239 2.7104 4.7933 8.7373 4.8541l4.2069 11.973 1.618-12.297c3.6109 4.509 6.28 1.4833 9.0609-0.6472"/>
      <path id="path3038" style="stroke:#000000;stroke-width:.30693px;fill:none" d="m352.08 628.12c-2.0895 4.4904-6.9722 6.1878-14.239 5.5013l1.9416 10.679c-7.0572-4.099-9.7052-8.198-11.65-12.297-11.924-1.4048-16.032-9.6489-21.358-16.827l-12.297 2.5888c2.0867-3.6362 1.8075-8.5636 9.7081-9.7081l1.6989-25.807"/>
      <path id="path3040" style="stroke:#000000;stroke-width:.30693px;fill:none" d="m317.46 582.49c-2.9112 7.6807-6.1229 15.241-4.8541 24.594-0.01 3.302 1.0982 5.2072 4.5305 4.2069l7.1193-4.5305c0.38497 3.1404 1.5952 6.7048-1.9416 9.0609-3.9783 2.4448 3.3814 7.0865 7.1193 9.0609 7.0639 1.9084 10.789 0.001 13.591-0.6472"/>
      <path id="path3042" style="stroke:#000000;stroke-width:.30693px;fill:none" d="m317.46 580.55c-3.6648 3.4449-5.8013 3.0692-7.7665 2.2652l0.3236-5.5013c-3.9951 7.0992-9.1704 8.2979-14.886 6.7957l2.9124-5.5013c-8.4573 6.5379-14.393 6.1413-19.416 3.236-0.24933-3.0203 1.1055-7.9822 7.4429-11.003l-4.5305-2.2652c1.8929-2.0495 0.93054-4.099 10.032-6.1485l-3.5596-2.9124c-1.2944-2.1574 2.1574-3.8833 10.355-5.1777"/>
      <path id="path3044" style="stroke:#000000;stroke-width:.30693px;fill:none" d="m324.58 567.68c-9.5068-3.3943-19.258 1.0131-27.183 3.1551 7.2038-3.7117 10.406-9.7098 22.976-10.355"/>
      <path id="path3046" style="stroke:#000000;stroke-width:.30693px;fill:none" d="m321.66 556.92c-2.9771 3.15-6.6252 4.287-11.326 2.2652l3.5596-4.2069c-5.4699 1.0768-11.372 3.6651-15.209-0.97081l6.1485-2.9124c-7.2318 0.23646-15.364 4.5228-21.034-2.2652-0.85299-3.6711-0.42922-7.8066 8.0901-14.886l7.4429 0.64721c-0.8003-2.263-7.3741-6.6947 10.032-2.2652l-3.5596-3.5596c5.0716-1.434 10.8-1.3363 18.445 3.236 5.4798 3.9947 6.3372 9.3126 6.7148 14.158"/>
      <path id="path3048" style="stroke:#000000;stroke-width:.30693px;fill:none" d="m325.55 551.42c-0.53217-8.1124-14.278-8.8309-24.27-11.65 9.8202 1.3815 21.32-2.3998 29.61 6.6339"/>
      <path id="path3050" style="stroke:#000000;stroke-width:.30693px;fill:none" d="m411.95 551.1c6.3689 1.32 11.813-2.4435 19.74 7.4429 4.2734-2.3411 7.5511 1.2926 11.003 3.8833l-8.4137 1.618c5.3438 6.3788 3.5204 12.422 2.2652 17.151"/>
      <path id="path3052" style="stroke:#000000;stroke-width:.30693px;fill:none" d="m417.45 559.43c7.3318 0.77314 14.272 4.1997 13.915 19.497"/>
      <path id="path3054" style="stroke:#000000;stroke-width:.30693px;fill:none" d="m323.28 531.36c-4.5464-5.1308-10.451-8.564-18.445-9.3845-19.028 5.5616-21.107-1.3057-28.154-4.5305 5.9452-0.34685 13.857 2.4525 15.857-4.2069-19.071-24.711-12.662-27.265-13.268-35.92 1.2449-3.4018 2.5039-6.7948 7.1193-8.0901 4.0656-0.13543 4.9559 1.6696 5.1777 3.8833-0.50208 3.2347-1.7848 3.2411-3.9642 4.045-3.3006-0.29527-1.4344-2.7379-0.88992-4.045"/>
      <path id="path3056" style="stroke:#000000;stroke-width:.30693px;fill:none" d="m279.35 480.71c4.2061 7.0392 7.9065 14.584 14.158 19.578 2.94-1.6254 5.4727-4.337 7.7665-7.6856 1.4595 5.579 1.0128 10.572-0.3236 15.29 14.749 3.824 25.537 14.98 32.441 21.034 5.477 1.0036 9.2254-1.7381 13.51-3.317-1.8908 4.1321-3.1347 8.712-7.6856 11.003 0.29833 2.5801 0.99571 5.2268 0.0809 7.6047"/>
    </g>
  </g>
  <metadata>
    <rdf:RDF>
      <cc:Work>
        <dc:format>image/svg+xml</dc:format>
        <dc:type rdf:resource="http://purl.org/dc/dcmitype/StillImage"/>
        <cc:license rdf:resource="http://creativecommons.org/licenses/publicdomain/"/>
        <dc:publisher>
          <cc:Agent rdf:about="http://openclipart.org/">
            <dc:title>Openclipart</dc:title>
          </cc:Agent>
        </dc:publisher>
      </cc:Work>
      <cc:License rdf:about="http://creativecommons.org/licenses/publicdomain/">
        <cc:permits rdf:resource="http://creativecommons.org/ns#Reproduction"/>
        <cc:permits rdf:resource="http://creativecommons.org/ns#Distribution"/>
        <cc:permits rdf:resource="http://creativecommons.org/ns#DerivativeWorks"/>
      </cc:License>
    </rdf:RDF>
  </metadata>
</svg>
